<?xml version="1.0" standalone="no"?>
<!DOCTYPE svg PUBLIC "-//W3C//DTD SVG 20010904//EN"
 "http://www.w3.org/TR/2001/REC-SVG-20010904/DTD/svg10.dtd">
<svg version="1.0" xmlns="http://www.w3.org/2000/svg"
 width="2000.000000pt" height="2000.000000pt" viewBox="0 0 2000.000000 2000.000000"
 preserveAspectRatio="xMidYMid meet">
<metadata>
Created by potrace 1.14, written by Peter Selinger 2001-2017
</metadata>
<g transform="translate(0.000000,2000.000000) scale(0.100000,-0.100000)"
fill="#000000" stroke="none">
<path d="M10272 16761 c-20 -24 -44 -54 -52 -65 -8 -12 -19 -26 -25 -32 -5 -6
-21 -26 -35 -44 -14 -18 -32 -40 -40 -50 -8 -10 -26 -32 -40 -50 -14 -18 -33
-42 -44 -54 -10 -11 -30 -37 -45 -56 -14 -19 -32 -41 -39 -48 -7 -8 -25 -30
-40 -50 -15 -21 -31 -42 -37 -48 -5 -6 -23 -28 -40 -50 -16 -21 -43 -54 -60
-74 -16 -20 -41 -51 -55 -70 -14 -18 -32 -40 -40 -50 -8 -10 -26 -32 -40 -50
-14 -18 -32 -41 -40 -50 -24 -29 -73 -90 -129 -160 -28 -36 -57 -72 -64 -80
-7 -8 -29 -35 -49 -60 l-36 -45 -269 1 c-147 1 -271 2 -275 3 -5 0 -8 110 -8
244 l0 243 -241 -1 c-146 0 -243 3 -247 9 -3 5 -5 34 -4 63 l1 53 -185 0 -184
0 -1 -37 c-1 -21 0 -48 1 -60 1 -13 -2 -24 -7 -24 -4 -1 -116 -2 -247 -3
l-240 -1 0 -245 -1 -245 -235 0 c-129 -1 -240 0 -245 2 -7 2 -10 48 -10 123
l1 120 -307 0 -308 0 -3 -122 -3 -123 -367 0 -368 0 0 -552 c0 -436 3 -553 13
-554 16 0 3358 0 3419 0 l46 1 28 115 c24 99 31 115 49 116 134 4 3607 0 3612
-5 4 -4 8 -12 9 -19 2 -7 6 -25 9 -42 3 -16 9 -39 12 -50 7 -21 9 -29 16 -60
9 -36 9 -40 8 -50 -1 -7 -191 -9 -553 -8 -385 1 -545 -2 -528 -9 14 -6 34 -14
45 -19 11 -5 43 -17 72 -28 112 -43 281 -134 425 -227 165 -108 388 -307 498
-444 24 -30 48 -59 54 -65 6 -5 22 -27 36 -47 14 -21 28 -38 33 -38 4 0 7 -7
7 -15 0 -8 5 -15 10 -15 6 0 10 -7 10 -15 0 -8 5 -15 10 -15 6 0 10 -7 10 -15
0 -8 5 -15 10 -15 6 0 10 -7 10 -15 0 -8 3 -15 8 -15 4 0 18 -23 31 -50 14
-28 29 -50 33 -50 4 0 8 -6 8 -14 0 -7 9 -25 20 -38 10 -14 16 -28 13 -32 -3
-3 -1 -6 5 -6 7 0 11 -3 10 -7 -2 -5 13 -39 32 -78 19 -38 35 -72 35 -75 1 -3
5 -12 8 -20 13 -32 76 -214 82 -240 2 -8 9 -31 15 -50 15 -51 43 -185 54 -260
17 -120 20 -175 21 -350 0 -176 -4 -256 -20 -360 -3 -19 -7 -51 -10 -70 -5
-38 -61 -264 -72 -290 -3 -8 -8 -23 -9 -32 -6 -28 -78 -205 -119 -293 -57
-119 -198 -348 -262 -425 -38 -45 -49 -59 -78 -95 -47 -57 -174 -184 -245
-245 -36 -30 -77 -66 -93 -80 l-27 -25 1025 0 1025 0 0 1967 0 1968 -784 0
-784 0 -6 25 c-4 14 -7 27 -7 30 0 2 -5 19 -10 37 -12 39 -18 64 -25 98 -3 14
-7 32 -10 42 -4 15 57 16 811 15 l815 -2 0 555 0 555 -241 0 c-132 0 -243 4
-246 8 -3 5 -6 61 -5 123 l0 114 -432 0 -432 0 1 -120 c0 -74 -3 -121 -10
-123 -5 -2 -130 -3 -277 -3 -267 1 -268 1 -284 24 -9 13 -25 34 -37 47 -12 13
-31 36 -42 51 -11 15 -25 32 -30 38 -6 6 -26 31 -45 56 -18 25 -41 52 -49 61
-9 9 -25 28 -35 43 -11 15 -29 37 -40 50 -12 13 -30 36 -41 51 -11 16 -25 33
-30 39 -6 6 -26 31 -45 56 -19 25 -39 50 -45 56 -5 6 -21 26 -35 44 -14 18
-33 42 -43 54 -10 11 -28 34 -40 50 -12 15 -31 39 -42 51 -11 13 -29 35 -39
50 -11 14 -27 34 -35 44 -9 10 -27 33 -41 51 -14 18 -32 40 -40 50 -8 10 -26
32 -40 50 -14 18 -30 38 -35 44 -6 6 -26 31 -45 56 -19 25 -40 51 -47 58 -7 7
-19 23 -28 35 l-15 22 -615 0 -616 1 -37 -45z"/>
<path d="M9044 14458 c-4 -6 -7 -18 -8 -27 -1 -9 -13 -60 -26 -113 l-24 -98
-1708 0 -1708 0 0 -1968 0 -1967 1945 0 c1070 0 1945 3 1945 7 0 4 -15 17 -32
30 -55 38 -78 59 -192 173 -114 114 -136 138 -196 215 -19 25 -43 54 -52 64
-10 11 -20 28 -24 38 -3 10 -10 18 -15 18 -5 0 -9 7 -9 15 0 8 -4 15 -10 15
-5 0 -10 7 -10 15 0 8 -3 15 -8 15 -4 0 -13 14 -20 30 -8 17 -19 36 -25 43
-23 25 -133 237 -129 250 1 4 -3 7 -10 7 -6 0 -8 3 -5 6 3 4 1 16 -5 28 -7 11
-13 23 -13 26 -1 3 -7 19 -14 35 -6 17 -19 50 -28 75 -8 25 -18 52 -21 60 -3
8 -6 18 -7 23 -2 4 -3 8 -5 10 -1 1 -3 9 -5 18 -1 9 -11 43 -20 75 -16 57 -20
70 -30 124 -3 14 -7 36 -10 50 -3 14 -8 45 -11 70 -3 25 -8 54 -10 65 -10 47
-18 220 -17 338 6 585 222 1134 621 1576 79 88 201 204 257 245 14 11 35 27
45 36 10 9 31 25 46 36 15 10 46 34 70 52 24 17 49 32 54 32 6 0 10 5 10 10 0
6 4 10 9 10 5 0 44 20 85 45 42 25 81 45 86 45 6 0 10 5 10 12 0 6 3 9 6 6 3
-3 38 10 77 30 40 20 74 36 77 37 5 2 42 16 95 38 17 6 32 12 35 13 3 0 16 6
30 11 18 8 -129 11 -532 11 -381 0 -560 -3 -564 -10z m-946 -2224 c12 -8 30
-30 39 -49 15 -31 15 -44 4 -112 -7 -43 -14 -87 -16 -98 -2 -11 -10 -54 -19
-95 -9 -41 -31 -157 -50 -257 -37 -195 -55 -241 -108 -288 -52 -46 -74 -55
-142 -62 -71 -6 -138 17 -189 65 -53 50 -69 92 -70 177 -1 75 12 102 142 305
55 85 133 209 175 275 56 89 84 126 112 142 40 23 83 22 122 -3z"/>
<path d="M10748 14215 c-2 -2 -32 -6 -66 -10 -35 -3 -73 -8 -85 -11 -18 -3
-52 -10 -97 -19 -48 -10 -173 -43 -225 -59 -5 -2 -12 -3 -15 -2 -3 0 -18 -7
-33 -17 -15 -9 -27 -15 -27 -12 0 3 -10 0 -22 -7 -13 -7 -25 -13 -28 -13 -3
-1 -22 -9 -44 -18 -21 -9 -42 -17 -47 -17 -5 0 -9 -5 -9 -11 0 -5 -4 -7 -10
-4 -5 3 -10 1 -10 -6 0 -7 -3 -10 -6 -6 -3 3 -22 -4 -42 -15 -21 -12 -57 -33
-82 -47 -25 -13 -47 -27 -50 -30 -3 -4 -17 -12 -32 -20 -16 -8 -28 -18 -28
-23 0 -4 -6 -8 -14 -8 -8 0 -16 -3 -18 -7 -1 -5 -19 -19 -39 -33 -95 -66 -264
-226 -349 -330 -25 -30 -53 -64 -63 -75 -17 -18 -72 -99 -129 -191 -139 -220
-250 -562 -275 -851 -13 -138 -5 -425 12 -476 2 -7 6 -28 9 -47 7 -48 42 -205
46 -205 1 0 3 -9 5 -19 5 -23 31 -105 46 -143 7 -15 13 -33 15 -40 8 -43 168
-343 187 -351 4 -2 7 -9 7 -16 0 -7 8 -21 18 -32 9 -10 30 -37 46 -59 17 -22
32 -42 35 -45 4 -3 24 -27 46 -55 22 -27 75 -85 118 -128 311 -313 710 -510
1166 -576 117 -17 394 -21 491 -7 25 3 61 9 80 11 34 5 53 9 103 20 12 3 38 8
57 11 19 3 43 10 53 15 9 5 17 7 17 5 0 -3 19 2 43 10 23 9 47 17 52 18 6 1
16 5 23 9 6 5 12 6 12 2 0 -3 10 0 23 7 12 7 24 13 27 13 24 5 110 41 110 47
0 5 7 8 15 8 8 0 45 16 82 37 38 20 78 41 90 47 13 6 23 14 23 19 0 4 5 7 11
7 10 0 150 92 175 115 6 5 26 21 45 35 44 32 254 242 298 297 18 23 42 52 53
65 42 48 135 197 193 313 116 229 178 447 210 738 7 66 7 281 0 342 -4 36 -17
133 -20 145 0 3 -4 27 -9 53 -9 59 -10 63 -36 157 -11 41 -23 86 -26 100 -3
13 -8 29 -13 35 -4 5 -13 28 -20 50 -7 22 -25 65 -39 95 -15 30 -25 58 -24 63
1 4 -3 7 -9 7 -5 0 -8 4 -4 9 3 5 -2 17 -11 25 -8 9 -13 16 -10 16 4 0 -5 18
-19 40 -14 22 -25 44 -25 50 0 5 -3 10 -7 10 -5 0 -17 18 -27 40 -11 22 -23
40 -28 40 -4 0 -8 7 -8 15 0 8 -4 15 -10 15 -5 0 -10 6 -10 13 0 6 -15 29 -33
49 -17 20 -40 47 -49 60 -35 47 -215 235 -272 283 -162 137 -390 273 -576 344
-83 31 -108 40 -115 41 -3 0 -22 7 -44 15 -45 16 -216 54 -276 61 -22 3 -47 8
-55 11 -16 6 -416 14 -422 8z m446 -449 c186 -38 316 -81 455 -153 119 -61
165 -91 281 -181 45 -35 209 -200 235 -236 11 -16 25 -33 31 -40 20 -21 111
-163 125 -194 8 -18 17 -32 21 -32 5 0 8 -5 8 -11 0 -5 12 -36 27 -67 15 -31
27 -59 28 -62 1 -3 5 -13 8 -22 17 -45 20 -54 24 -72 2 -11 8 -25 14 -33 6 -7
9 -13 6 -13 -4 0 0 -18 8 -40 8 -22 12 -40 10 -40 -3 0 0 -11 5 -24 5 -13 11
-44 15 -67 3 -24 8 -57 11 -72 14 -69 18 -263 9 -357 -37 -344 -154 -627 -370
-889 -52 -63 -179 -184 -250 -236 -22 -17 -46 -35 -53 -42 -6 -6 -21 -15 -32
-18 -11 -3 -20 -11 -20 -16 0 -5 -7 -9 -15 -9 -8 0 -15 -4 -15 -9 0 -5 -8 -11
-17 -14 -10 -3 -46 -22 -81 -41 -35 -20 -70 -36 -78 -36 -8 0 -14 -5 -14 -12
0 -6 -3 -9 -6 -5 -4 3 -19 0 -34 -8 -33 -17 -198 -72 -237 -80 -15 -2 -39 -7
-53 -10 -111 -23 -168 -28 -310 -29 -155 0 -270 13 -390 45 -41 11 -79 21 -85
22 -167 44 -445 196 -575 317 -9 8 -36 33 -61 56 -24 22 -64 64 -89 93 -25 28
-53 61 -62 71 -10 11 -18 24 -18 29 0 5 -3 11 -7 13 -12 5 -58 69 -78 108 -10
19 -21 37 -24 40 -6 4 -93 176 -96 190 -1 3 -5 13 -8 23 -4 9 -10 25 -14 35
-3 9 -7 20 -8 25 -2 4 -3 8 -5 10 -1 1 -3 9 -5 17 -2 8 -13 46 -24 84 -11 38
-23 88 -26 110 -4 23 -10 57 -14 76 -20 93 -19 336 3 485 51 347 264 728 531
950 26 22 62 52 79 67 17 15 34 28 38 28 4 0 13 6 20 13 17 16 137 87 148 87
5 0 15 6 22 13 18 17 78 49 78 42 0 -3 13 1 30 10 16 8 33 16 37 16 5 1 17 6
28 12 11 6 22 12 25 13 3 0 12 3 20 6 25 9 130 39 153 44 74 16 119 23 172 29
33 4 62 9 64 11 11 10 335 -7 405 -20z"/>
<path d="M10909 13546 c-2 -2 -44 -6 -94 -9 -102 -7 -146 -14 -192 -28 -17 -6
-44 -12 -59 -15 -15 -3 -37 -10 -48 -16 -12 -6 -22 -11 -23 -10 -2 1 -4 2 -5
1 -2 0 -10 -2 -18 -4 -8 -2 -26 -7 -40 -13 -14 -5 -28 -9 -31 -8 -4 0 -15 -7
-25 -16 -11 -9 -23 -17 -29 -18 -15 -2 -79 -33 -85 -41 -3 -3 -22 -14 -42 -24
-21 -9 -38 -21 -38 -26 0 -5 -6 -9 -12 -9 -7 0 -28 -14 -47 -30 -18 -17 -37
-30 -41 -30 -14 0 -183 -174 -235 -244 -135 -179 -210 -354 -255 -591 -14 -77
-18 -136 -16 -255 2 -85 6 -162 9 -170 3 -8 8 -28 10 -45 6 -35 35 -153 44
-175 3 -8 7 -18 8 -22 2 -5 3 -9 5 -10 1 -2 3 -11 5 -20 4 -21 83 -184 105
-218 72 -109 86 -128 138 -189 305 -364 827 -545 1282 -446 141 30 163 36 178
48 6 5 12 7 12 4 0 -12 186 74 245 113 17 11 37 23 45 27 67 31 255 207 338
316 145 191 226 388 268 652 7 45 8 286 1 325 -3 14 -8 48 -11 75 -4 28 -11
61 -15 75 -9 27 -34 112 -35 120 -2 8 -27 71 -52 128 -13 28 -23 53 -21 55 1
1 -8 16 -21 34 -12 17 -22 34 -22 37 0 7 -56 89 -98 146 -49 64 -187 200 -257
251 -205 152 -454 248 -687 264 -45 3 -95 8 -109 10 -15 2 -28 3 -30 1z m-464
-400 c80 -80 -57 -315 -262 -448 -24 -16 -49 -28 -57 -28 -8 0 -17 -4 -20 -9
-3 -5 -26 -12 -51 -15 -34 -6 -52 -3 -75 11 -31 18 -33 24 -31 83 2 83 134
269 241 341 19 13 37 26 40 30 5 6 82 42 109 51 44 13 82 8 106 -16z m1315
-1518 c71 -24 100 -85 73 -156 -17 -44 -32 -58 -82 -73 -35 -11 -47 -10 -75 4
-100 47 -97 187 4 223 45 16 41 16 80 2z"/>
<path d="M13128 9969 c-97 -27 -184 -76 -267 -150 -16 -14 -44 -39 -63 -55
-88 -79 -240 -273 -364 -469 -278 -436 -542 -1061 -713 -1683 -161 -589 -183
-679 -184 -774 0 -52 4 -72 17 -87 41 -45 130 -51 240 -16 31 10 56 22 56 26
0 5 6 9 14 9 35 0 196 197 196 240 0 4 3 10 8 12 4 2 25 39 47 82 22 44 52 98
66 120 122 190 206 310 244 352 5 6 30 35 54 64 57 66 108 116 144 138 15 9
27 20 27 24 0 13 60 9 61 -4 3 -29 -4 -65 -16 -93 -7 -16 -19 -46 -26 -65 -11
-30 -99 -236 -144 -335 -55 -123 -92 -277 -87 -360 1 -16 3 -40 3 -53 1 -12 5
-25 10 -28 5 -3 9 -13 9 -22 1 -42 71 -96 151 -117 51 -14 182 -14 239 -1 14
4 37 8 53 11 47 9 189 67 207 85 3 3 22 14 43 24 20 11 37 23 37 28 0 4 5 8
10 8 9 0 65 35 80 50 3 3 20 16 38 28 32 23 34 23 47 5 8 -10 15 -23 15 -30 0
-7 28 -41 63 -76 102 -106 207 -145 378 -141 57 1 113 4 124 7 17 4 97 27 115
32 3 1 19 8 35 15 17 7 33 13 38 12 4 -1 7 3 7 10 0 6 3 8 6 5 4 -4 19 1 33
11 14 10 38 24 54 32 15 7 27 17 27 22 0 4 5 8 11 8 6 0 16 6 23 13 7 6 31 26
52 42 94 73 228 236 287 350 38 73 41 76 78 80 19 2 61 6 94 9 89 9 137 16
144 20 4 3 26 7 51 11 24 4 77 18 116 31 40 13 75 24 79 24 3 0 3 -19 -1 -42
-13 -88 -6 -279 12 -340 3 -9 7 -25 9 -35 2 -10 9 -31 16 -48 7 -16 12 -33 11
-37 -1 -5 3 -8 8 -8 6 0 10 -7 10 -16 0 -28 116 -133 177 -160 32 -14 67 -28
78 -31 138 -31 294 -26 435 13 100 28 319 149 395 217 19 17 20 17 32 1 7 -10
13 -23 13 -28 0 -11 27 -46 86 -108 43 -45 124 -86 206 -104 100 -20 265 -10
358 24 8 3 21 6 28 8 40 8 213 104 277 154 28 22 167 160 195 195 70 85 156
234 189 325 7 19 17 44 21 55 19 44 41 125 55 195 14 73 15 259 1 308 -3 12
-8 31 -11 43 -7 34 -48 119 -57 119 -4 0 -8 5 -8 11 0 21 -83 98 -138 127 -79
42 -165 60 -275 57 -50 -2 -103 -6 -117 -9 -14 -3 -36 -8 -49 -11 -171 -34
-384 -176 -523 -347 -18 -22 -38 -45 -44 -52 -55 -59 -224 -396 -198 -396 4 0
2 -6 -3 -12 -12 -16 -48 -157 -45 -178 2 -13 -24 -47 -60 -75 -67 -55 -218
-142 -262 -151 -119 -26 -209 -24 -273 8 -84 42 -113 113 -111 273 0 60 3 114
6 120 3 5 7 20 8 32 9 78 100 441 115 458 6 5 118 10 272 11 144 1 273 5 287
8 97 22 127 30 138 39 6 5 12 6 12 3 0 -10 81 47 107 76 41 43 68 125 64 189
-2 32 -47 39 -257 39 l-206 0 40 33 c22 17 59 48 83 67 86 69 255 248 322 341
116 162 210 376 247 562 11 56 12 182 1 202 -3 6 -7 18 -8 28 -8 50 -49 102
-107 133 -33 18 -135 25 -186 12 -59 -15 -65 -16 -67 -18 -2 -2 -6 -3 -10 -4
-39 -9 -142 -70 -222 -130 -53 -40 -248 -248 -308 -327 -166 -221 -326 -505
-458 -811 l-37 -88 -111 0 c-60 0 -128 -5 -150 -12 -75 -23 -127 -99 -145
-211 -16 -104 16 -129 169 -131 81 -1 99 -4 99 -16 0 -8 -13 -57 -29 -109 -27
-89 -30 -95 -57 -98 -16 -2 -58 -10 -94 -18 -66 -16 -91 -21 -145 -30 -16 -3
-43 -7 -60 -10 -16 -3 -57 -8 -91 -11 l-61 -6 7 49 c7 55 5 132 -5 189 -8 45
-13 69 -15 69 -1 0 -3 9 -5 21 -7 34 -62 132 -94 166 -17 18 -31 36 -31 39 0
15 -150 79 -210 89 -71 13 -221 7 -267 -11 -15 -6 -29 -10 -31 -9 -5 3 -66
-12 -82 -20 -8 -4 -42 -20 -75 -35 -58 -26 -148 -78 -171 -100 -7 -5 -25 -19
-40 -30 -35 -25 -137 -127 -184 -185 -123 -151 -232 -391 -264 -579 -11 -69
-22 -85 -91 -135 -14 -11 -38 -30 -53 -43 -15 -13 -30 -23 -34 -23 -4 0 -13
-6 -20 -12 -19 -18 -77 -46 -118 -58 -50 -14 -96 3 -103 39 -15 76 14 153 278
736 41 90 95 257 99 304 3 47 -9 97 -29 117 -53 53 -189 63 -300 22 -58 -21
-160 -71 -163 -80 -2 -4 -9 -8 -16 -8 -7 0 -26 -11 -42 -25 -16 -14 -32 -25
-36 -25 -4 0 -18 -10 -32 -22 -14 -13 -40 -34 -58 -48 -104 -80 -315 -323
-434 -500 -26 -39 -49 -69 -51 -67 -8 9 96 349 110 360 18 14 126 110 173 152
18 17 72 66 120 110 113 102 330 319 414 414 36 40 72 80 80 89 59 63 187 237
249 335 199 319 283 620 226 812 -13 45 -29 70 -65 106 -72 72 -163 86 -302
48z m6 -346 c29 -48 22 -137 -19 -266 -23 -72 -100 -246 -114 -257 -3 -3 -17
-25 -30 -49 -84 -154 -278 -398 -478 -600 -68 -68 -123 -120 -123 -117 0 13
139 353 190 466 72 159 197 407 259 514 159 274 271 383 315 309z m3383 -226
c5 -12 8 -42 7 -67 -3 -55 -43 -209 -59 -230 -6 -8 -18 -31 -25 -50 -8 -19
-24 -52 -37 -72 -13 -21 -23 -40 -23 -43 0 -7 -61 -94 -119 -170 -47 -62 -195
-213 -247 -252 -16 -13 -46 -36 -68 -53 -21 -16 -40 -30 -42 -30 -4 0 10 38
31 85 7 16 27 66 45 110 41 103 177 385 231 478 92 160 167 259 229 300 39 27
63 25 77 -6z m-2287 -1469 c-33 -95 -44 -212 -27 -288 3 -14 8 -34 10 -45 7
-31 40 -95 49 -95 4 0 8 -5 8 -10 0 -6 11 -22 25 -36 14 -14 25 -28 25 -32 0
-12 -76 -148 -96 -172 -19 -23 -82 -86 -107 -106 -7 -6 -23 -15 -35 -18 -12
-4 -22 -12 -22 -17 0 -5 -3 -8 -7 -8 -5 1 -10 1 -13 -1 -25 -9 -64 -14 -110
-14 -69 0 -110 28 -142 93 -77 157 34 529 207 694 61 59 149 100 221 105 l33
3 -19 -53z m3048 28 c77 -40 108 -138 87 -277 -31 -209 -108 -381 -219 -490
-71 -71 -79 -75 -166 -97 -39 -10 -104 4 -136 28 -79 61 -90 197 -32 400 23
83 94 243 124 280 21 26 104 109 126 125 52 40 167 57 216 31z"/>
<path d="M4657 9664 c-1 -1 -45 -4 -97 -8 -52 -3 -106 -8 -120 -10 -14 -3 -41
-7 -60 -10 -47 -8 -115 -21 -150 -31 -3 -1 -18 -5 -35 -9 -16 -4 -43 -13 -60
-19 -16 -6 -35 -12 -40 -13 -39 -6 -295 -120 -306 -137 -3 -5 -8 -7 -10 -6 -6
4 -103 -54 -107 -63 -2 -4 -10 -8 -18 -8 -8 0 -14 -4 -14 -10 0 -5 -6 -10 -13
-10 -7 0 -22 -8 -33 -17 -10 -10 -37 -31 -59 -48 -196 -146 -388 -356 -540
-590 -59 -90 -168 -297 -212 -400 -57 -135 -153 -429 -169 -523 -3 -15 -10
-47 -15 -72 -18 -82 -23 -134 -23 -280 -1 -138 4 -190 27 -280 12 -49 70 -171
94 -201 118 -147 281 -218 468 -205 70 5 113 11 150 21 31 8 115 49 115 56 0
5 6 9 13 9 24 0 142 133 186 209 24 40 68 132 98 205 189 451 246 582 256 592
27 27 177 -53 177 -94 0 -7 4 -12 9 -12 7 0 22 -34 18 -43 0 -1 6 -13 13 -27
8 -14 15 -27 15 -30 1 -3 9 -32 19 -65 10 -33 20 -67 22 -75 2 -8 8 -33 14
-55 6 -22 13 -49 15 -60 14 -65 52 -208 62 -235 3 -8 7 -21 9 -27 1 -7 21 -51
43 -98 93 -191 247 -277 485 -270 55 2 112 6 126 9 14 3 34 8 45 10 63 13 141
41 220 82 49 25 92 48 95 52 3 4 32 25 65 47 33 22 65 44 71 50 6 5 26 21 44
35 164 123 231 207 266 335 29 105 9 165 -55 165 -45 0 -91 -31 -223 -150 -15
-14 -39 -34 -53 -45 -15 -11 -35 -28 -46 -37 -10 -10 -22 -18 -26 -18 -4 0
-16 -8 -27 -19 -22 -19 -140 -83 -166 -89 -99 -24 -155 -21 -216 9 -54 27
-103 73 -104 97 0 6 -4 12 -9 12 -5 0 -12 10 -16 23 -4 12 -8 24 -10 27 -2 5
-6 15 -28 75 -6 17 -12 35 -14 40 -1 6 -4 20 -7 33 -13 52 -17 68 -22 89 -2
12 -8 33 -13 45 -5 13 -9 26 -10 31 0 4 -1 8 -2 10 0 1 -2 10 -4 20 -2 10 -7
26 -11 35 -4 9 -8 20 -8 24 -1 3 -4 10 -8 14 -5 4 -8 13 -8 20 0 16 -57 103
-84 128 -34 30 -88 62 -131 76 l-40 13 40 14 c22 8 47 16 55 18 8 2 16 4 18 5
1 2 5 3 10 4 26 6 89 30 100 39 6 5 12 6 12 2 0 -4 11 0 25 9 13 9 31 16 40
16 8 0 15 5 15 10 0 6 7 10 15 10 15 0 73 30 117 61 14 11 29 19 33 19 4 0 17
8 30 18 12 9 33 24 45 32 204 134 395 384 469 610 30 94 36 133 36 245 -1 103
-5 140 -24 188 -6 15 -8 27 -4 27 3 0 -1 8 -10 18 -10 10 -14 22 -10 25 3 4 0
7 -7 7 -7 0 -10 3 -7 6 8 8 -45 78 -87 117 -120 109 -287 172 -506 193 -60 5
-219 11 -223 8z m67 -404 c257 -65 335 -266 215 -554 -20 -48 -70 -134 -99
-170 -26 -33 -136 -140 -159 -156 -13 -8 -36 -25 -53 -37 -41 -30 -213 -113
-213 -103 0 1 -13 -4 -30 -10 -16 -7 -38 -14 -47 -16 -10 -2 -28 -6 -40 -9
-13 -3 -41 -8 -63 -11 -22 -3 -53 -7 -68 -9 -16 -2 -27 0 -25 4 2 4 61 142
132 307 129 299 149 362 133 427 -10 37 -75 68 -149 68 -82 1 -117 -6 -183
-37 -109 -52 -140 -104 -318 -525 l-103 -244 -46 -1 c-105 -3 -142 -17 -204
-80 -58 -59 -79 -154 -50 -225 10 -24 64 -51 107 -53 21 0 39 -4 39 -8 0 -11
-216 -511 -248 -573 -40 -78 -80 -121 -119 -129 -34 -8 -77 9 -103 41 -15 18
-38 63 -37 73 0 3 -5 14 -11 26 -34 65 -33 296 4 459 8 39 17 81 20 95 10 49
65 233 93 308 88 235 191 426 331 608 61 80 276 294 295 294 6 0 20 11 50 38
7 6 17 12 21 12 4 0 15 6 23 14 20 18 215 116 241 121 10 2 28 9 39 15 12 6
21 8 21 5 0 -4 6 -3 13 2 6 4 17 9 22 10 6 1 28 7 50 12 65 16 96 21 165 27
36 3 66 7 68 8 10 11 221 -7 286 -24z"/>
<path d="M11017 9664 c-1 -1 -36 -4 -77 -8 -41 -3 -85 -8 -96 -10 -12 -3 -39
-7 -60 -10 -22 -4 -46 -8 -54 -11 -8 -2 -26 -6 -40 -9 -65 -13 -80 -17 -121
-32 -24 -8 -51 -17 -59 -19 -36 -8 -174 -67 -268 -117 -56 -29 -112 -57 -122
-63 -11 -5 -20 -13 -20 -17 0 -5 -5 -8 -10 -8 -12 0 -73 -41 -78 -52 -2 -5
-10 -8 -18 -8 -8 0 -14 -4 -14 -10 0 -5 -5 -10 -10 -10 -10 0 -21 -8 -59 -40
-9 -8 -39 -33 -66 -55 -62 -50 -223 -210 -291 -290 -312 -365 -534 -808 -678
-1358 -114 -432 -101 -742 38 -962 61 -95 195 -183 321 -210 85 -19 226 -11
300 15 33 12 68 24 78 27 9 3 17 9 17 13 0 5 9 11 20 15 30 10 162 144 202
206 56 87 79 137 275 594 101 236 185 430 186 431 1 1 31 5 67 9 36 3 77 8 93
11 65 10 93 15 107 19 8 2 29 7 45 10 101 17 139 27 153 37 6 6 12 8 12 4 0
-3 12 -1 28 5 15 6 34 12 43 14 8 2 33 11 55 21 21 9 41 18 44 19 49 17 173
76 200 95 14 10 30 19 35 19 6 1 19 8 30 16 11 8 50 35 87 60 207 137 400 361
496 576 39 87 80 214 87 268 3 23 8 47 11 52 8 14 8 211 0 236 -4 12 -9 31
-11 42 -3 12 -7 29 -9 40 -7 29 -46 112 -70 145 -49 70 -125 137 -226 198 -69
41 -215 81 -345 93 -66 6 -224 12 -228 9z m43 -400 c87 -16 164 -52 212 -97
33 -31 70 -81 75 -102 1 -5 9 -28 17 -50 14 -40 15 -165 2 -230 -24 -111 -88
-260 -154 -355 -64 -92 -192 -214 -254 -242 -16 -7 -28 -17 -28 -21 0 -5 -4
-5 -10 -2 -5 3 -10 2 -10 -2 0 -7 -49 -30 -70 -34 -3 0 -16 -7 -30 -15 -61
-33 -340 -99 -340 -80 0 3 65 160 145 350 80 190 151 369 159 398 27 103 1
155 -87 179 -48 13 -158 7 -202 -12 -16 -7 -33 -12 -37 -11 -5 1 -8 -3 -8 -9
0 -5 -4 -8 -9 -5 -13 9 -107 -87 -129 -131 -31 -60 -322 -743 -322 -755 0 -7
-21 -8 -67 -3 -149 18 -197 9 -261 -49 -50 -44 -81 -152 -64 -219 7 -28 81
-64 156 -76 37 -5 71 -12 73 -15 6 -6 -243 -598 -298 -709 -48 -96 -81 -140
-125 -168 -33 -20 -35 -20 -71 -2 -51 24 -83 82 -110 198 -11 48 -9 231 3 322
43 311 203 757 382 1063 42 72 159 250 172 260 3 3 21 25 40 50 108 140 253
276 395 371 50 32 95 63 100 67 19 14 102 52 114 52 6 0 11 5 11 12 0 6 3 8 7
5 3 -4 12 -2 20 4 7 6 13 8 13 5 0 -4 12 0 28 8 34 18 137 45 200 53 26 3 49
7 51 9 10 9 247 0 311 -12z"/>
<path d="M6608 9639 c-118 -42 -178 -101 -243 -237 -23 -48 -64 -153 -68 -177
-2 -5 -6 -16 -10 -22 -5 -7 -5 -13 -1 -13 3 0 2 -6 -3 -12 -10 -12 -33 -76
-33 -88 0 -3 -15 -44 -34 -92 -19 -49 -32 -88 -29 -88 3 0 0 -7 -7 -15 -7 -8
-9 -15 -5 -15 4 0 3 -6 -2 -12 -9 -11 -40 -96 -49 -133 -2 -5 -10 -30 -19 -55
-49 -133 7 -212 146 -206 35 2 83 9 107 16 66 21 144 100 195 200 24 47 44 87
44 90 -1 3 17 41 38 85 22 44 40 82 40 85 0 3 13 29 28 58 15 30 27 60 27 68
0 8 5 14 10 14 6 0 10 6 10 13 0 6 13 37 30 68 16 31 26 59 23 63 -3 3 -1 6 5
6 7 0 11 3 10 8 -1 4 10 32 24 62 51 113 60 143 59 209 -2 69 -39 117 -100
128 -64 11 -149 8 -193 -8z"/>
<path d="M7558 8385 c-2 -2 -30 -5 -63 -8 -33 -3 -73 -11 -90 -18 -16 -7 -33
-12 -37 -11 -5 1 -8 -2 -8 -8 0 -5 -6 -10 -14 -10 -25 0 -99 -83 -181 -205
-122 -180 -275 -395 -300 -421 -5 -6 -23 -28 -40 -49 -41 -52 -161 -179 -274
-289 -285 -277 -284 -275 -285 -363 -1 -67 23 -95 86 -99 60 -3 139 38 219
115 9 9 36 32 60 51 24 19 60 51 80 70 130 124 184 178 226 227 26 31 53 61
58 67 6 6 31 36 56 67 37 46 47 53 57 42 7 -7 10 -13 6 -13 -3 0 -1 -6 5 -14
6 -7 23 -36 36 -62 56 -110 83 -228 70 -306 l-7 -40 -62 8 c-102 12 -179 11
-230 -2 -101 -27 -194 -118 -215 -212 -43 -197 170 -314 454 -249 97 23 226
100 310 186 69 70 84 88 120 145 105 165 135 343 80 480 -6 17 -16 40 -20 51
-5 11 -9 22 -9 25 -1 3 -32 66 -68 141 -37 75 -70 149 -73 165 -18 82 7 156
98 287 135 195 138 229 20 245 -35 5 -64 8 -65 7z"/>
</g>
</svg>
